<?xml version="1.0" encoding="utf-8" standalone="no"?>
<!DOCTYPE svg PUBLIC "-//W3C//DTD SVG 1.1//EN"
  "http://www.w3.org/Graphics/SVG/1.1/DTD/svg11.dtd">
<svg xmlns:xlink="http://www.w3.org/1999/xlink" width="576pt" height="432pt" viewBox="0 0 576 432" xmlns="http://www.w3.org/2000/svg" version="1.1">
 <metadata>
  <rdf:RDF xmlns:dc="http://purl.org/dc/elements/1.1/" xmlns:cc="http://creativecommons.org/ns#" xmlns:rdf="http://www.w3.org/1999/02/22-rdf-syntax-ns#">
   <cc:Work>
    <dc:type rdf:resource="http://purl.org/dc/dcmitype/StillImage"/>
    <dc:date>2026-06-07T03:41:17.989794</dc:date>
    <dc:format>image/svg+xml</dc:format>
    <dc:creator>
     <cc:Agent>
      <dc:title>Matplotlib v3.10.1, https://matplotlib.org/</dc:title>
     </cc:Agent>
    </dc:creator>
   </cc:Work>
  </rdf:RDF>
 </metadata>
 <defs>
  <style type="text/css">*{stroke-linejoin: round; stroke-linecap: butt}</style>
 </defs>
 <g id="figure_1">
  <g id="patch_1">
   <path d="M 0 432 
L 576 432 
L 576 0 
L 0 0 
z
" style="fill: #ffffff"/>
  </g>
  <g id="axes_1">
   <g id="patch_2">
    <path d="M 72 384.48 
L 518.4 384.48 
L 518.4 51.84 
L 72 51.84 
z
" style="fill: #ffffff"/>
   </g>
   <g id="patch_3">
    <path d="M -634.8 384.48 
L 109.2 384.48 
L 109.2 51.84 
L -634.8 51.84 
z
" clip-path="url(#p6a7cb47cb2)" style="fill: #808080; opacity: 0.15; stroke: #808080; stroke-linejoin: miter"/>
   </g>
   <g id="patch_4">
    <path d="M 481.2 384.48 
L 1225.2 384.48 
L 1225.2 51.84 
L 481.2 51.84 
z
" clip-path="url(#p6a7cb47cb2)" style="fill: #808080; opacity: 0.15; stroke: #808080; stroke-linejoin: miter"/>
   </g>
   <g id="matplotlib.axis_1">
    <g id="xtick_1">
     <g id="line2d_1">
      <defs>
       <path id="mc0d93f95bd" d="M 0 0 
L 0 3.5 
" style="stroke: #000000; stroke-width: 0.8"/>
      </defs>
      <g>
       <use xlink:href="#mc0d93f95bd" x="72" y="384.48" style="stroke: #000000; stroke-width: 0.8"/>
      </g>
     </g>
     <g id="text_1">
      <!-- −6 -->
      <g transform="translate(64.628906 399.078438) scale(0.1 -0.1)">
       <defs>
        <path id="DejaVuSans-2212" d="M 678 2272 
L 4684 2272 
L 4684 1741 
L 678 1741 
L 678 2272 
z
" transform="scale(0.015625)"/>
        <path id="DejaVuSans-36" d="M 2113 2584 
Q 1688 2584 1439 2293 
Q 1191 2003 1191 1497 
Q 1191 994 1439 701 
Q 1688 409 2113 409 
Q 2538 409 2786 701 
Q 3034 994 3034 1497 
Q 3034 2003 2786 2293 
Q 2538 2584 2113 2584 
z
M 3366 4563 
L 3366 3988 
Q 3128 4100 2886 4159 
Q 2644 4219 2406 4219 
Q 1781 4219 1451 3797 
Q 1122 3375 1075 2522 
Q 1259 2794 1537 2939 
Q 1816 3084 2150 3084 
Q 2853 3084 3261 2657 
Q 3669 2231 3669 1497 
Q 3669 778 3244 343 
Q 2819 -91 2113 -91 
Q 1303 -91 875 529 
Q 447 1150 447 2328 
Q 447 3434 972 4092 
Q 1497 4750 2381 4750 
Q 2619 4750 2861 4703 
Q 3103 4656 3366 4563 
z
" transform="scale(0.015625)"/>
       </defs>
       <use xlink:href="#DejaVuSans-2212"/>
       <use xlink:href="#DejaVuSans-36" transform="translate(83.789062 0)"/>
      </g>
     </g>
    </g>
    <g id="xtick_2">
     <g id="line2d_2">
      <g>
       <use xlink:href="#mc0d93f95bd" x="146.4" y="384.48" style="stroke: #000000; stroke-width: 0.8"/>
      </g>
     </g>
     <g id="text_2">
      <!-- −4 -->
      <g transform="translate(139.028906 399.078438) scale(0.1 -0.1)">
       <defs>
        <path id="DejaVuSans-34" d="M 2419 4116 
L 825 1625 
L 2419 1625 
L 2419 4116 
z
M 2253 4666 
L 3047 4666 
L 3047 1625 
L 3713 1625 
L 3713 1100 
L 3047 1100 
L 3047 0 
L 2419 0 
L 2419 1100 
L 313 1100 
L 313 1709 
L 2253 4666 
z
" transform="scale(0.015625)"/>
       </defs>
       <use xlink:href="#DejaVuSans-2212"/>
       <use xlink:href="#DejaVuSans-34" transform="translate(83.789062 0)"/>
      </g>
     </g>
    </g>
    <g id="xtick_3">
     <g id="line2d_3">
      <g>
       <use xlink:href="#mc0d93f95bd" x="220.8" y="384.48" style="stroke: #000000; stroke-width: 0.8"/>
      </g>
     </g>
     <g id="text_3">
      <!-- −2 -->
      <g transform="translate(213.428906 399.078438) scale(0.1 -0.1)">
       <defs>
        <path id="DejaVuSans-32" d="M 1228 531 
L 3431 531 
L 3431 0 
L 469 0 
L 469 531 
Q 828 903 1448 1529 
Q 2069 2156 2228 2338 
Q 2531 2678 2651 2914 
Q 2772 3150 2772 3378 
Q 2772 3750 2511 3984 
Q 2250 4219 1831 4219 
Q 1534 4219 1204 4116 
Q 875 4013 500 3803 
L 500 4441 
Q 881 4594 1212 4672 
Q 1544 4750 1819 4750 
Q 2544 4750 2975 4387 
Q 3406 4025 3406 3419 
Q 3406 3131 3298 2873 
Q 3191 2616 2906 2266 
Q 2828 2175 2409 1742 
Q 1991 1309 1228 531 
z
" transform="scale(0.015625)"/>
       </defs>
       <use xlink:href="#DejaVuSans-2212"/>
       <use xlink:href="#DejaVuSans-32" transform="translate(83.789062 0)"/>
      </g>
     </g>
    </g>
    <g id="xtick_4">
     <g id="line2d_4">
      <g>
       <use xlink:href="#mc0d93f95bd" x="295.2" y="384.48" style="stroke: #000000; stroke-width: 0.8"/>
      </g>
     </g>
     <g id="text_4">
      <!-- 0 -->
      <g transform="translate(292.01875 399.078438) scale(0.1 -0.1)">
       <defs>
        <path id="DejaVuSans-30" d="M 2034 4250 
Q 1547 4250 1301 3770 
Q 1056 3291 1056 2328 
Q 1056 1369 1301 889 
Q 1547 409 2034 409 
Q 2525 409 2770 889 
Q 3016 1369 3016 2328 
Q 3016 3291 2770 3770 
Q 2525 4250 2034 4250 
z
M 2034 4750 
Q 2819 4750 3233 4129 
Q 3647 3509 3647 2328 
Q 3647 1150 3233 529 
Q 2819 -91 2034 -91 
Q 1250 -91 836 529 
Q 422 1150 422 2328 
Q 422 3509 836 4129 
Q 1250 4750 2034 4750 
z
" transform="scale(0.015625)"/>
       </defs>
       <use xlink:href="#DejaVuSans-30"/>
      </g>
     </g>
    </g>
    <g id="xtick_5">
     <g id="line2d_5">
      <g>
       <use xlink:href="#mc0d93f95bd" x="369.6" y="384.48" style="stroke: #000000; stroke-width: 0.8"/>
      </g>
     </g>
     <g id="text_5">
      <!-- 2 -->
      <g transform="translate(366.41875 399.078438) scale(0.1 -0.1)">
       <use xlink:href="#DejaVuSans-32"/>
      </g>
     </g>
    </g>
    <g id="xtick_6">
     <g id="line2d_6">
      <g>
       <use xlink:href="#mc0d93f95bd" x="444" y="384.48" style="stroke: #000000; stroke-width: 0.8"/>
      </g>
     </g>
     <g id="text_6">
      <!-- 4 -->
      <g transform="translate(440.81875 399.078438) scale(0.1 -0.1)">
       <use xlink:href="#DejaVuSans-34"/>
      </g>
     </g>
    </g>
    <g id="xtick_7">
     <g id="line2d_7">
      <g>
       <use xlink:href="#mc0d93f95bd" x="518.4" y="384.48" style="stroke: #000000; stroke-width: 0.8"/>
      </g>
     </g>
     <g id="text_7">
      <!-- 6 -->
      <g transform="translate(515.21875 399.078438) scale(0.1 -0.1)">
       <use xlink:href="#DejaVuSans-36"/>
      </g>
     </g>
    </g>
    <g id="text_8">
     <!-- Classifier bl_slope -->
     <g transform="translate(250.419531 412.756563) scale(0.1 -0.1)">
      <defs>
       <path id="DejaVuSans-43" d="M 4122 4306 
L 4122 3641 
Q 3803 3938 3442 4084 
Q 3081 4231 2675 4231 
Q 1875 4231 1450 3742 
Q 1025 3253 1025 2328 
Q 1025 1406 1450 917 
Q 1875 428 2675 428 
Q 3081 428 3442 575 
Q 3803 722 4122 1019 
L 4122 359 
Q 3791 134 3420 21 
Q 3050 -91 2638 -91 
Q 1578 -91 968 557 
Q 359 1206 359 2328 
Q 359 3453 968 4101 
Q 1578 4750 2638 4750 
Q 3056 4750 3426 4639 
Q 3797 4528 4122 4306 
z
" transform="scale(0.015625)"/>
       <path id="DejaVuSans-6c" d="M 603 4863 
L 1178 4863 
L 1178 0 
L 603 0 
L 603 4863 
z
" transform="scale(0.015625)"/>
       <path id="DejaVuSans-61" d="M 2194 1759 
Q 1497 1759 1228 1600 
Q 959 1441 959 1056 
Q 959 750 1161 570 
Q 1363 391 1709 391 
Q 2188 391 2477 730 
Q 2766 1069 2766 1631 
L 2766 1759 
L 2194 1759 
z
M 3341 1997 
L 3341 0 
L 2766 0 
L 2766 531 
Q 2569 213 2275 61 
Q 1981 -91 1556 -91 
Q 1019 -91 701 211 
Q 384 513 384 1019 
Q 384 1609 779 1909 
Q 1175 2209 1959 2209 
L 2766 2209 
L 2766 2266 
Q 2766 2663 2505 2880 
Q 2244 3097 1772 3097 
Q 1472 3097 1187 3025 
Q 903 2953 641 2809 
L 641 3341 
Q 956 3463 1253 3523 
Q 1550 3584 1831 3584 
Q 2591 3584 2966 3190 
Q 3341 2797 3341 1997 
z
" transform="scale(0.015625)"/>
       <path id="DejaVuSans-73" d="M 2834 3397 
L 2834 2853 
Q 2591 2978 2328 3040 
Q 2066 3103 1784 3103 
Q 1356 3103 1142 2972 
Q 928 2841 928 2578 
Q 928 2378 1081 2264 
Q 1234 2150 1697 2047 
L 1894 2003 
Q 2506 1872 2764 1633 
Q 3022 1394 3022 966 
Q 3022 478 2636 193 
Q 2250 -91 1575 -91 
Q 1294 -91 989 -36 
Q 684 19 347 128 
L 347 722 
Q 666 556 975 473 
Q 1284 391 1588 391 
Q 1994 391 2212 530 
Q 2431 669 2431 922 
Q 2431 1156 2273 1281 
Q 2116 1406 1581 1522 
L 1381 1569 
Q 847 1681 609 1914 
Q 372 2147 372 2553 
Q 372 3047 722 3315 
Q 1072 3584 1716 3584 
Q 2034 3584 2315 3537 
Q 2597 3491 2834 3397 
z
" transform="scale(0.015625)"/>
       <path id="DejaVuSans-69" d="M 603 3500 
L 1178 3500 
L 1178 0 
L 603 0 
L 603 3500 
z
M 603 4863 
L 1178 4863 
L 1178 4134 
L 603 4134 
L 603 4863 
z
" transform="scale(0.015625)"/>
       <path id="DejaVuSans-66" d="M 2375 4863 
L 2375 4384 
L 1825 4384 
Q 1516 4384 1395 4259 
Q 1275 4134 1275 3809 
L 1275 3500 
L 2222 3500 
L 2222 3053 
L 1275 3053 
L 1275 0 
L 697 0 
L 697 3053 
L 147 3053 
L 147 3500 
L 697 3500 
L 697 3744 
Q 697 4328 969 4595 
Q 1241 4863 1831 4863 
L 2375 4863 
z
" transform="scale(0.015625)"/>
       <path id="DejaVuSans-65" d="M 3597 1894 
L 3597 1613 
L 953 1613 
Q 991 1019 1311 708 
Q 1631 397 2203 397 
Q 2534 397 2845 478 
Q 3156 559 3463 722 
L 3463 178 
Q 3153 47 2828 -22 
Q 2503 -91 2169 -91 
Q 1331 -91 842 396 
Q 353 884 353 1716 
Q 353 2575 817 3079 
Q 1281 3584 2069 3584 
Q 2775 3584 3186 3129 
Q 3597 2675 3597 1894 
z
M 3022 2063 
Q 3016 2534 2758 2815 
Q 2500 3097 2075 3097 
Q 1594 3097 1305 2825 
Q 1016 2553 972 2059 
L 3022 2063 
z
" transform="scale(0.015625)"/>
       <path id="DejaVuSans-72" d="M 2631 2963 
Q 2534 3019 2420 3045 
Q 2306 3072 2169 3072 
Q 1681 3072 1420 2755 
Q 1159 2438 1159 1844 
L 1159 0 
L 581 0 
L 581 3500 
L 1159 3500 
L 1159 2956 
Q 1341 3275 1631 3429 
Q 1922 3584 2338 3584 
Q 2397 3584 2469 3576 
Q 2541 3569 2628 3553 
L 2631 2963 
z
" transform="scale(0.015625)"/>
       <path id="DejaVuSans-20" transform="scale(0.015625)"/>
       <path id="DejaVuSans-62" d="M 3116 1747 
Q 3116 2381 2855 2742 
Q 2594 3103 2138 3103 
Q 1681 3103 1420 2742 
Q 1159 2381 1159 1747 
Q 1159 1113 1420 752 
Q 1681 391 2138 391 
Q 2594 391 2855 752 
Q 3116 1113 3116 1747 
z
M 1159 2969 
Q 1341 3281 1617 3432 
Q 1894 3584 2278 3584 
Q 2916 3584 3314 3078 
Q 3713 2572 3713 1747 
Q 3713 922 3314 415 
Q 2916 -91 2278 -91 
Q 1894 -91 1617 61 
Q 1341 213 1159 525 
L 1159 0 
L 581 0 
L 581 4863 
L 1159 4863 
L 1159 2969 
z
" transform="scale(0.015625)"/>
       <path id="DejaVuSans-5f" d="M 3263 -1063 
L 3263 -1509 
L -63 -1509 
L -63 -1063 
L 3263 -1063 
z
" transform="scale(0.015625)"/>
       <path id="DejaVuSans-6f" d="M 1959 3097 
Q 1497 3097 1228 2736 
Q 959 2375 959 1747 
Q 959 1119 1226 758 
Q 1494 397 1959 397 
Q 2419 397 2687 759 
Q 2956 1122 2956 1747 
Q 2956 2369 2687 2733 
Q 2419 3097 1959 3097 
z
M 1959 3584 
Q 2709 3584 3137 3096 
Q 3566 2609 3566 1747 
Q 3566 888 3137 398 
Q 2709 -91 1959 -91 
Q 1206 -91 779 398 
Q 353 888 353 1747 
Q 353 2609 779 3096 
Q 1206 3584 1959 3584 
z
" transform="scale(0.015625)"/>
       <path id="DejaVuSans-70" d="M 1159 525 
L 1159 -1331 
L 581 -1331 
L 581 3500 
L 1159 3500 
L 1159 2969 
Q 1341 3281 1617 3432 
Q 1894 3584 2278 3584 
Q 2916 3584 3314 3078 
Q 3713 2572 3713 1747 
Q 3713 922 3314 415 
Q 2916 -91 2278 -91 
Q 1894 -91 1617 61 
Q 1341 213 1159 525 
z
M 3116 1747 
Q 3116 2381 2855 2742 
Q 2594 3103 2138 3103 
Q 1681 3103 1420 2742 
Q 1159 2381 1159 1747 
Q 1159 1113 1420 752 
Q 1681 391 2138 391 
Q 2594 391 2855 752 
Q 3116 1113 3116 1747 
z
" transform="scale(0.015625)"/>
      </defs>
      <use xlink:href="#DejaVuSans-43"/>
      <use xlink:href="#DejaVuSans-6c" transform="translate(69.824219 0)"/>
      <use xlink:href="#DejaVuSans-61" transform="translate(97.607422 0)"/>
      <use xlink:href="#DejaVuSans-73" transform="translate(158.886719 0)"/>
      <use xlink:href="#DejaVuSans-73" transform="translate(210.986328 0)"/>
      <use xlink:href="#DejaVuSans-69" transform="translate(263.085938 0)"/>
      <use xlink:href="#DejaVuSans-66" transform="translate(290.869141 0)"/>
      <use xlink:href="#DejaVuSans-69" transform="translate(326.074219 0)"/>
      <use xlink:href="#DejaVuSans-65" transform="translate(353.857422 0)"/>
      <use xlink:href="#DejaVuSans-72" transform="translate(415.380859 0)"/>
      <use xlink:href="#DejaVuSans-20" transform="translate(456.494141 0)"/>
      <use xlink:href="#DejaVuSans-62" transform="translate(488.28125 0)"/>
      <use xlink:href="#DejaVuSans-6c" transform="translate(551.757812 0)"/>
      <use xlink:href="#DejaVuSans-5f" transform="translate(579.541016 0)"/>
      <use xlink:href="#DejaVuSans-73" transform="translate(629.541016 0)"/>
      <use xlink:href="#DejaVuSans-6c" transform="translate(681.640625 0)"/>
      <use xlink:href="#DejaVuSans-6f" transform="translate(709.423828 0)"/>
      <use xlink:href="#DejaVuSans-70" transform="translate(770.605469 0)"/>
      <use xlink:href="#DejaVuSans-65" transform="translate(834.082031 0)"/>
     </g>
    </g>
   </g>
   <g id="matplotlib.axis_2">
    <g id="ytick_1">
     <g id="line2d_8">
      <defs>
       <path id="mbdd1c53d54" d="M 0 0 
L -3.5 0 
" style="stroke: #000000; stroke-width: 0.8"/>
      </defs>
      <g>
       <use xlink:href="#mbdd1c53d54" x="72" y="384.48" style="stroke: #000000; stroke-width: 0.8"/>
      </g>
     </g>
     <g id="text_9">
      <!-- $\mathdefault{10^{0}}$ -->
      <g transform="translate(47.4 388.279219) scale(0.1 -0.1)">
       <defs>
        <path id="DejaVuSans-31" d="M 794 531 
L 1825 531 
L 1825 4091 
L 703 3866 
L 703 4441 
L 1819 4666 
L 2450 4666 
L 2450 531 
L 3481 531 
L 3481 0 
L 794 0 
L 794 531 
z
" transform="scale(0.015625)"/>
       </defs>
       <use xlink:href="#DejaVuSans-31" transform="translate(0 0.765625)"/>
       <use xlink:href="#DejaVuSans-30" transform="translate(63.623047 0.765625)"/>
       <use xlink:href="#DejaVuSans-30" transform="translate(128.203125 39.046875) scale(0.7)"/>
      </g>
     </g>
    </g>
    <g id="ytick_2">
     <g id="line2d_9">
      <g>
       <use xlink:href="#mbdd1c53d54" x="72" y="317.952" style="stroke: #000000; stroke-width: 0.8"/>
      </g>
     </g>
     <g id="text_10">
      <!-- $\mathdefault{10^{1}}$ -->
      <g transform="translate(47.4 321.751219) scale(0.1 -0.1)">
       <use xlink:href="#DejaVuSans-31" transform="translate(0 0.684375)"/>
       <use xlink:href="#DejaVuSans-30" transform="translate(63.623047 0.684375)"/>
       <use xlink:href="#DejaVuSans-31" transform="translate(128.203125 38.965625) scale(0.7)"/>
      </g>
     </g>
    </g>
    <g id="ytick_3">
     <g id="line2d_10">
      <g>
       <use xlink:href="#mbdd1c53d54" x="72" y="251.424" style="stroke: #000000; stroke-width: 0.8"/>
      </g>
     </g>
     <g id="text_11">
      <!-- $\mathdefault{10^{2}}$ -->
      <g transform="translate(47.4 255.223219) scale(0.1 -0.1)">
       <use xlink:href="#DejaVuSans-31" transform="translate(0 0.765625)"/>
       <use xlink:href="#DejaVuSans-30" transform="translate(63.623047 0.765625)"/>
       <use xlink:href="#DejaVuSans-32" transform="translate(128.203125 39.046875) scale(0.7)"/>
      </g>
     </g>
    </g>
    <g id="ytick_4">
     <g id="line2d_11">
      <g>
       <use xlink:href="#mbdd1c53d54" x="72" y="184.896" style="stroke: #000000; stroke-width: 0.8"/>
      </g>
     </g>
     <g id="text_12">
      <!-- $\mathdefault{10^{3}}$ -->
      <g transform="translate(47.4 188.695219) scale(0.1 -0.1)">
       <defs>
        <path id="DejaVuSans-33" d="M 2597 2516 
Q 3050 2419 3304 2112 
Q 3559 1806 3559 1356 
Q 3559 666 3084 287 
Q 2609 -91 1734 -91 
Q 1441 -91 1130 -33 
Q 819 25 488 141 
L 488 750 
Q 750 597 1062 519 
Q 1375 441 1716 441 
Q 2309 441 2620 675 
Q 2931 909 2931 1356 
Q 2931 1769 2642 2001 
Q 2353 2234 1838 2234 
L 1294 2234 
L 1294 2753 
L 1863 2753 
Q 2328 2753 2575 2939 
Q 2822 3125 2822 3475 
Q 2822 3834 2567 4026 
Q 2313 4219 1838 4219 
Q 1578 4219 1281 4162 
Q 984 4106 628 3988 
L 628 4550 
Q 988 4650 1302 4700 
Q 1616 4750 1894 4750 
Q 2613 4750 3031 4423 
Q 3450 4097 3450 3541 
Q 3450 3153 3228 2886 
Q 3006 2619 2597 2516 
z
" transform="scale(0.015625)"/>
       </defs>
       <use xlink:href="#DejaVuSans-31" transform="translate(0 0.765625)"/>
       <use xlink:href="#DejaVuSans-30" transform="translate(63.623047 0.765625)"/>
       <use xlink:href="#DejaVuSans-33" transform="translate(128.203125 39.046875) scale(0.7)"/>
      </g>
     </g>
    </g>
    <g id="ytick_5">
     <g id="line2d_12">
      <g>
       <use xlink:href="#mbdd1c53d54" x="72" y="118.368" style="stroke: #000000; stroke-width: 0.8"/>
      </g>
     </g>
     <g id="text_13">
      <!-- $\mathdefault{10^{4}}$ -->
      <g transform="translate(47.4 122.167219) scale(0.1 -0.1)">
       <use xlink:href="#DejaVuSans-31" transform="translate(0 0.684375)"/>
       <use xlink:href="#DejaVuSans-30" transform="translate(63.623047 0.684375)"/>
       <use xlink:href="#DejaVuSans-34" transform="translate(128.203125 38.965625) scale(0.7)"/>
      </g>
     </g>
    </g>
    <g id="ytick_6">
     <g id="line2d_13">
      <g>
       <use xlink:href="#mbdd1c53d54" x="72" y="51.84" style="stroke: #000000; stroke-width: 0.8"/>
      </g>
     </g>
     <g id="text_14">
      <!-- $\mathdefault{10^{5}}$ -->
      <g transform="translate(47.4 55.639219) scale(0.1 -0.1)">
       <defs>
        <path id="DejaVuSans-35" d="M 691 4666 
L 3169 4666 
L 3169 4134 
L 1269 4134 
L 1269 2991 
Q 1406 3038 1543 3061 
Q 1681 3084 1819 3084 
Q 2600 3084 3056 2656 
Q 3513 2228 3513 1497 
Q 3513 744 3044 326 
Q 2575 -91 1722 -91 
Q 1428 -91 1123 -41 
Q 819 9 494 109 
L 494 744 
Q 775 591 1075 516 
Q 1375 441 1709 441 
Q 2250 441 2565 725 
Q 2881 1009 2881 1497 
Q 2881 1984 2565 2268 
Q 2250 2553 1709 2553 
Q 1456 2553 1204 2497 
Q 953 2441 691 2322 
L 691 4666 
z
" transform="scale(0.015625)"/>
       </defs>
       <use xlink:href="#DejaVuSans-31" transform="translate(0 0.684375)"/>
       <use xlink:href="#DejaVuSans-30" transform="translate(63.623047 0.684375)"/>
       <use xlink:href="#DejaVuSans-35" transform="translate(128.203125 38.965625) scale(0.7)"/>
      </g>
     </g>
    </g>
    <g id="ytick_7">
     <g id="line2d_14">
      <defs>
       <path id="m24c97164e5" d="M 0 0 
L -2 0 
" style="stroke: #000000; stroke-width: 0.6"/>
      </defs>
      <g>
       <use xlink:href="#m24c97164e5" x="72" y="364.453076" style="stroke: #000000; stroke-width: 0.6"/>
      </g>
     </g>
    </g>
    <g id="ytick_8">
     <g id="line2d_15">
      <g>
       <use xlink:href="#m24c97164e5" x="72" y="352.738077" style="stroke: #000000; stroke-width: 0.6"/>
      </g>
     </g>
    </g>
    <g id="ytick_9">
     <g id="line2d_16">
      <g>
       <use xlink:href="#m24c97164e5" x="72" y="344.426153" style="stroke: #000000; stroke-width: 0.6"/>
      </g>
     </g>
    </g>
    <g id="ytick_10">
     <g id="line2d_17">
      <g>
       <use xlink:href="#m24c97164e5" x="72" y="337.978924" style="stroke: #000000; stroke-width: 0.6"/>
      </g>
     </g>
    </g>
    <g id="ytick_11">
     <g id="line2d_18">
      <g>
       <use xlink:href="#m24c97164e5" x="72" y="332.711154" style="stroke: #000000; stroke-width: 0.6"/>
      </g>
     </g>
    </g>
    <g id="ytick_12">
     <g id="line2d_19">
      <g>
       <use xlink:href="#m24c97164e5" x="72" y="328.257318" style="stroke: #000000; stroke-width: 0.6"/>
      </g>
     </g>
    </g>
    <g id="ytick_13">
     <g id="line2d_20">
      <g>
       <use xlink:href="#m24c97164e5" x="72" y="324.399229" style="stroke: #000000; stroke-width: 0.6"/>
      </g>
     </g>
    </g>
    <g id="ytick_14">
     <g id="line2d_21">
      <g>
       <use xlink:href="#m24c97164e5" x="72" y="320.996154" style="stroke: #000000; stroke-width: 0.6"/>
      </g>
     </g>
    </g>
    <g id="ytick_15">
     <g id="line2d_22">
      <g>
       <use xlink:href="#m24c97164e5" x="72" y="297.925076" style="stroke: #000000; stroke-width: 0.6"/>
      </g>
     </g>
    </g>
    <g id="ytick_16">
     <g id="line2d_23">
      <g>
       <use xlink:href="#m24c97164e5" x="72" y="286.210077" style="stroke: #000000; stroke-width: 0.6"/>
      </g>
     </g>
    </g>
    <g id="ytick_17">
     <g id="line2d_24">
      <g>
       <use xlink:href="#m24c97164e5" x="72" y="277.898153" style="stroke: #000000; stroke-width: 0.6"/>
      </g>
     </g>
    </g>
    <g id="ytick_18">
     <g id="line2d_25">
      <g>
       <use xlink:href="#m24c97164e5" x="72" y="271.450924" style="stroke: #000000; stroke-width: 0.6"/>
      </g>
     </g>
    </g>
    <g id="ytick_19">
     <g id="line2d_26">
      <g>
       <use xlink:href="#m24c97164e5" x="72" y="266.183154" style="stroke: #000000; stroke-width: 0.6"/>
      </g>
     </g>
    </g>
    <g id="ytick_20">
     <g id="line2d_27">
      <g>
       <use xlink:href="#m24c97164e5" x="72" y="261.729318" style="stroke: #000000; stroke-width: 0.6"/>
      </g>
     </g>
    </g>
    <g id="ytick_21">
     <g id="line2d_28">
      <g>
       <use xlink:href="#m24c97164e5" x="72" y="257.871229" style="stroke: #000000; stroke-width: 0.6"/>
      </g>
     </g>
    </g>
    <g id="ytick_22">
     <g id="line2d_29">
      <g>
       <use xlink:href="#m24c97164e5" x="72" y="254.468154" style="stroke: #000000; stroke-width: 0.6"/>
      </g>
     </g>
    </g>
    <g id="ytick_23">
     <g id="line2d_30">
      <g>
       <use xlink:href="#m24c97164e5" x="72" y="231.397076" style="stroke: #000000; stroke-width: 0.6"/>
      </g>
     </g>
    </g>
    <g id="ytick_24">
     <g id="line2d_31">
      <g>
       <use xlink:href="#m24c97164e5" x="72" y="219.682077" style="stroke: #000000; stroke-width: 0.6"/>
      </g>
     </g>
    </g>
    <g id="ytick_25">
     <g id="line2d_32">
      <g>
       <use xlink:href="#m24c97164e5" x="72" y="211.370153" style="stroke: #000000; stroke-width: 0.6"/>
      </g>
     </g>
    </g>
    <g id="ytick_26">
     <g id="line2d_33">
      <g>
       <use xlink:href="#m24c97164e5" x="72" y="204.922924" style="stroke: #000000; stroke-width: 0.6"/>
      </g>
     </g>
    </g>
    <g id="ytick_27">
     <g id="line2d_34">
      <g>
       <use xlink:href="#m24c97164e5" x="72" y="199.655154" style="stroke: #000000; stroke-width: 0.6"/>
      </g>
     </g>
    </g>
    <g id="ytick_28">
     <g id="line2d_35">
      <g>
       <use xlink:href="#m24c97164e5" x="72" y="195.201318" style="stroke: #000000; stroke-width: 0.6"/>
      </g>
     </g>
    </g>
    <g id="ytick_29">
     <g id="line2d_36">
      <g>
       <use xlink:href="#m24c97164e5" x="72" y="191.343229" style="stroke: #000000; stroke-width: 0.6"/>
      </g>
     </g>
    </g>
    <g id="ytick_30">
     <g id="line2d_37">
      <g>
       <use xlink:href="#m24c97164e5" x="72" y="187.940154" style="stroke: #000000; stroke-width: 0.6"/>
      </g>
     </g>
    </g>
    <g id="ytick_31">
     <g id="line2d_38">
      <g>
       <use xlink:href="#m24c97164e5" x="72" y="164.869076" style="stroke: #000000; stroke-width: 0.6"/>
      </g>
     </g>
    </g>
    <g id="ytick_32">
     <g id="line2d_39">
      <g>
       <use xlink:href="#m24c97164e5" x="72" y="153.154077" style="stroke: #000000; stroke-width: 0.6"/>
      </g>
     </g>
    </g>
    <g id="ytick_33">
     <g id="line2d_40">
      <g>
       <use xlink:href="#m24c97164e5" x="72" y="144.842153" style="stroke: #000000; stroke-width: 0.6"/>
      </g>
     </g>
    </g>
    <g id="ytick_34">
     <g id="line2d_41">
      <g>
       <use xlink:href="#m24c97164e5" x="72" y="138.394924" style="stroke: #000000; stroke-width: 0.6"/>
      </g>
     </g>
    </g>
    <g id="ytick_35">
     <g id="line2d_42">
      <g>
       <use xlink:href="#m24c97164e5" x="72" y="133.127154" style="stroke: #000000; stroke-width: 0.6"/>
      </g>
     </g>
    </g>
    <g id="ytick_36">
     <g id="line2d_43">
      <g>
       <use xlink:href="#m24c97164e5" x="72" y="128.673318" style="stroke: #000000; stroke-width: 0.6"/>
      </g>
     </g>
    </g>
    <g id="ytick_37">
     <g id="line2d_44">
      <g>
       <use xlink:href="#m24c97164e5" x="72" y="124.815229" style="stroke: #000000; stroke-width: 0.6"/>
      </g>
     </g>
    </g>
    <g id="ytick_38">
     <g id="line2d_45">
      <g>
       <use xlink:href="#m24c97164e5" x="72" y="121.412154" style="stroke: #000000; stroke-width: 0.6"/>
      </g>
     </g>
    </g>
    <g id="ytick_39">
     <g id="line2d_46">
      <g>
       <use xlink:href="#m24c97164e5" x="72" y="98.341076" style="stroke: #000000; stroke-width: 0.6"/>
      </g>
     </g>
    </g>
    <g id="ytick_40">
     <g id="line2d_47">
      <g>
       <use xlink:href="#m24c97164e5" x="72" y="86.626077" style="stroke: #000000; stroke-width: 0.6"/>
      </g>
     </g>
    </g>
    <g id="ytick_41">
     <g id="line2d_48">
      <g>
       <use xlink:href="#m24c97164e5" x="72" y="78.314153" style="stroke: #000000; stroke-width: 0.6"/>
      </g>
     </g>
    </g>
    <g id="ytick_42">
     <g id="line2d_49">
      <g>
       <use xlink:href="#m24c97164e5" x="72" y="71.866924" style="stroke: #000000; stroke-width: 0.6"/>
      </g>
     </g>
    </g>
    <g id="ytick_43">
     <g id="line2d_50">
      <g>
       <use xlink:href="#m24c97164e5" x="72" y="66.599154" style="stroke: #000000; stroke-width: 0.6"/>
      </g>
     </g>
    </g>
    <g id="ytick_44">
     <g id="line2d_51">
      <g>
       <use xlink:href="#m24c97164e5" x="72" y="62.145318" style="stroke: #000000; stroke-width: 0.6"/>
      </g>
     </g>
    </g>
    <g id="ytick_45">
     <g id="line2d_52">
      <g>
       <use xlink:href="#m24c97164e5" x="72" y="58.287229" style="stroke: #000000; stroke-width: 0.6"/>
      </g>
     </g>
    </g>
    <g id="ytick_46">
     <g id="line2d_53">
      <g>
       <use xlink:href="#m24c97164e5" x="72" y="54.884154" style="stroke: #000000; stroke-width: 0.6"/>
      </g>
     </g>
    </g>
    <g id="text_15">
     <!-- Counts -->
     <g transform="translate(41.320312 235.613125) rotate(-90) scale(0.1 -0.1)">
      <defs>
       <path id="DejaVuSans-75" d="M 544 1381 
L 544 3500 
L 1119 3500 
L 1119 1403 
Q 1119 906 1312 657 
Q 1506 409 1894 409 
Q 2359 409 2629 706 
Q 2900 1003 2900 1516 
L 2900 3500 
L 3475 3500 
L 3475 0 
L 2900 0 
L 2900 538 
Q 2691 219 2414 64 
Q 2138 -91 1772 -91 
Q 1169 -91 856 284 
Q 544 659 544 1381 
z
M 1991 3584 
L 1991 3584 
z
" transform="scale(0.015625)"/>
       <path id="DejaVuSans-6e" d="M 3513 2113 
L 3513 0 
L 2938 0 
L 2938 2094 
Q 2938 2591 2744 2837 
Q 2550 3084 2163 3084 
Q 1697 3084 1428 2787 
Q 1159 2491 1159 1978 
L 1159 0 
L 581 0 
L 581 3500 
L 1159 3500 
L 1159 2956 
Q 1366 3272 1645 3428 
Q 1925 3584 2291 3584 
Q 2894 3584 3203 3211 
Q 3513 2838 3513 2113 
z
" transform="scale(0.015625)"/>
       <path id="DejaVuSans-74" d="M 1172 4494 
L 1172 3500 
L 2356 3500 
L 2356 3053 
L 1172 3053 
L 1172 1153 
Q 1172 725 1289 603 
Q 1406 481 1766 481 
L 2356 481 
L 2356 0 
L 1766 0 
Q 1100 0 847 248 
Q 594 497 594 1153 
L 594 3053 
L 172 3053 
L 172 3500 
L 594 3500 
L 594 4494 
L 1172 4494 
z
" transform="scale(0.015625)"/>
      </defs>
      <use xlink:href="#DejaVuSans-43"/>
      <use xlink:href="#DejaVuSans-6f" transform="translate(69.824219 0)"/>
      <use xlink:href="#DejaVuSans-75" transform="translate(131.005859 0)"/>
      <use xlink:href="#DejaVuSans-6e" transform="translate(194.384766 0)"/>
      <use xlink:href="#DejaVuSans-74" transform="translate(257.763672 0)"/>
      <use xlink:href="#DejaVuSans-73" transform="translate(296.972656 0)"/>
     </g>
    </g>
   </g>
   <g id="patch_5">
    <path d="M 109.2 433 
L 109.2 384.48 
L 112.175997 384.48 
L 112.175997 433 
M 124.080004 433 
L 124.080004 384.48 
L 127.056001 384.48 
L 127.056001 433 
M 130.031998 433 
L 130.031998 384.48 
L 133.007995 384.48 
L 133.007995 433 
M 138.960007 433 
L 138.960007 384.48 
L 141.936004 384.48 
L 141.936004 364.453076 
L 144.912001 364.453076 
L 144.912001 433 
M 147.887999 433 
L 147.887999 344.426153 
L 150.863996 344.426153 
L 150.863996 332.711154 
L 153.840002 332.711154 
L 153.840002 344.426153 
L 156.815999 344.426153 
L 156.815999 324.399229 
L 162.768002 324.399229 
L 162.768002 312.68423 
L 165.743999 312.68423 
L 165.743999 297.925076 
L 168.719996 297.925076 
L 168.719996 291.477847 
L 171.696002 291.477847 
L 171.696002 284.345382 
L 174.672 284.345382 
L 174.672 277.184716 
L 180.624003 277.184716 
L 180.624003 271.450924 
L 183.6 271.450924 
L 183.6 265.235766 
L 186.575997 265.235766 
L 186.575997 261.319485 
L 189.552003 261.319485 
L 189.552003 251.424 
L 192.528 251.424 
L 192.528 241.089804 
L 195.503998 241.089804 
L 195.503998 235.923235 
L 198.480004 235.923235 
L 198.480004 232.128577 
L 201.456001 232.128577 
L 201.456001 226.129307 
L 204.431998 226.129307 
L 204.431998 223.157474 
L 207.408004 223.157474 
L 207.408004 214.737135 
L 210.384001 214.737135 
L 210.384001 212.852157 
L 213.359998 212.852157 
L 213.359998 204.865196 
L 216.336004 204.865196 
L 216.336004 201.75192 
L 219.312001 201.75192 
L 219.312001 199.463175 
L 222.287999 199.463175 
L 222.287999 194.267247 
L 225.264 194.267247 
L 225.264 190.559408 
L 228.240002 190.559408 
L 228.240002 186.868763 
L 231.215999 186.868763 
L 231.215999 181.13559 
L 234.192001 181.13559 
L 234.192001 177.226812 
L 237.168002 177.226812 
L 237.168002 174.907342 
L 240.143999 174.907342 
L 240.143999 173.451933 
L 243.120001 173.451933 
L 243.120001 169.445968 
L 246.095998 169.445968 
L 246.095998 166.981381 
L 249.072 166.981381 
L 249.072 163.652658 
L 252.048001 163.652658 
L 252.048001 161.633421 
L 255.023998 161.633421 
L 255.023998 159.843088 
L 258 159.843088 
L 258 157.804408 
L 260.975999 157.804408 
L 260.975999 155.219793 
L 263.952001 155.219793 
L 263.952001 153.75745 
L 266.928 153.75745 
L 266.928 153.009973 
L 269.904 153.009973 
L 269.904 151.946894 
L 272.879999 151.946894 
L 272.879999 149.699683 
L 275.856001 149.699683 
L 275.856001 148.371911 
L 278.832 148.371911 
L 278.832 147.008906 
L 281.807999 147.008906 
L 281.807999 146.783998 
L 284.784 146.783998 
L 284.784 147.432423 
L 287.76 147.432423 
L 287.76 145.893984 
L 290.736 145.893984 
L 290.736 146.308954 
L 293.712 146.308954 
L 293.712 145.961482 
L 296.688 145.961482 
L 296.688 146.308954 
L 299.664 146.308954 
L 299.664 146.112044 
L 302.64 146.112044 
L 302.64 147.742203 
L 305.616 147.742203 
L 305.616 147.001121 
L 308.592001 147.001121 
L 308.592001 148.799472 
L 311.568 148.799472 
L 311.568 150.008975 
L 314.543999 150.008975 
L 314.543999 151.046622 
L 317.520001 151.046622 
L 317.520001 152.534753 
L 320.496 152.534753 
L 320.496 153.057928 
L 323.472 153.057928 
L 323.472 155.003367 
L 326.447999 155.003367 
L 326.447999 157.144549 
L 329.424001 157.144549 
L 329.424001 159.064584 
L 332.4 159.064584 
L 332.4 161.376252 
L 335.376002 161.376252 
L 335.376002 163.972995 
L 338.351999 163.972995 
L 338.351999 166.672199 
L 341.328 166.672199 
L 341.328 169.718062 
L 344.304002 169.718062 
L 344.304002 172.855391 
L 347.279999 172.855391 
L 347.279999 174.541606 
L 350.256001 174.541606 
L 350.256001 178.402579 
L 353.231998 178.402579 
L 353.231998 182.089743 
L 356.207999 182.089743 
L 356.207999 185.686829 
L 359.184001 185.686829 
L 359.184001 188.393129 
L 362.159998 188.393129 
L 362.159998 192.977702 
L 365.136 192.977702 
L 365.136 196.726802 
L 368.112001 196.726802 
L 368.112001 199.751624 
L 371.087999 199.751624 
L 371.087999 207.83895 
L 374.063996 207.83895 
L 374.063996 212.624952 
L 377.040002 212.624952 
L 377.040002 216.23623 
L 380.015999 216.23623 
L 380.015999 221.572466 
L 382.991996 221.572466 
L 382.991996 225.533559 
L 385.968002 225.533559 
L 385.968002 232.576536 
L 388.943999 232.576536 
L 388.943999 238.575807 
L 391.919996 238.575807 
L 391.919996 243.843577 
L 394.896002 243.843577 
L 394.896002 247.892797 
L 397.872 247.892797 
L 397.872 250.851848 
L 400.847997 250.851848 
L 400.847997 263.8705 
L 403.824003 263.8705 
L 403.824003 271.450924 
L 406.8 271.450924 
L 406.8 278.629654 
L 409.775997 278.629654 
L 409.775997 285.262689 
L 412.752003 285.262689 
L 412.752003 292.657307 
L 418.703998 292.657307 
L 418.703998 295.171304 
L 421.680004 295.171304 
L 421.680004 308.230394 
L 424.656001 308.230394 
L 424.656001 324.399229 
L 427.631998 324.399229 
L 427.631998 337.978924 
L 430.608004 337.978924 
L 430.608004 312.68423 
L 433.584001 312.68423 
L 433.584001 364.453076 
L 436.559998 364.453076 
L 436.559998 352.738077 
L 439.536004 352.738077 
L 439.536004 384.48 
L 442.512001 384.48 
L 442.512001 364.453076 
L 445.487999 364.453076 
L 445.487999 433 
M 451.439993 433 
L 451.439993 332.711154 
L 454.416008 332.711154 
L 454.416008 364.453076 
L 457.392005 364.453076 
L 457.392005 433 
M 460.368002 433 
L 460.368002 364.453076 
L 463.343999 364.453076 
L 463.343999 433 
M 481.2 433 
L 481.2 384.48 
L 484.175997 384.48 
L 484.175997 433 
M 513.936004 433 
L 513.936004 384.48 
L 516.912001 384.48 
L 516.912001 433 
M 531.792005 433 
L 531.792005 384.48 
L 534.768002 384.48 
L 534.768002 433 
M 537.743999 433 
L 537.743999 384.48 
L 540.719996 384.48 
L 540.719996 433 
M 561.551994 433 
L 561.551994 384.48 
L 564.527991 384.48 
L 564.527991 433 
L 564.527991 433 
" clip-path="url(#p6a7cb47cb2)" style="fill: none; stroke: #1f77b4; stroke-linejoin: miter"/>
   </g>
   <g id="patch_6">
    <path d="M 109.2 433 
L 109.2 384.48 
L 112.175997 384.48 
L 112.175997 433 
M 124.080004 433 
L 124.080004 384.48 
L 127.056001 384.48 
L 127.056001 433 
M 138.960007 433 
L 138.960007 384.48 
L 141.936004 384.48 
L 141.936004 433 
M 150.863996 433 
L 150.863996 384.48 
L 153.840002 384.48 
L 153.840002 364.453076 
L 162.768002 364.453076 
L 162.768002 344.426153 
L 165.743999 344.426153 
L 165.743999 352.738077 
L 168.719996 352.738077 
L 168.719996 384.48 
L 171.696002 384.48 
L 171.696002 317.952 
L 174.672 317.952 
L 174.672 320.996154 
L 177.647997 320.996154 
L 177.647997 352.738077 
L 180.624003 352.738077 
L 180.624003 337.978924 
L 183.6 337.978924 
L 183.6 324.399229 
L 186.575997 324.399229 
L 186.575997 332.711154 
L 189.552003 332.711154 
L 189.552003 295.171304 
L 192.528 295.171304 
L 192.528 299.40708 
L 195.503998 299.40708 
L 195.503998 289.254231 
L 198.480004 289.254231 
L 198.480004 283.456305 
L 201.456001 283.456305 
L 201.456001 282.593771 
L 204.431998 282.593771 
L 204.431998 268.176547 
L 207.408004 268.176547 
L 207.408004 267.162662 
L 210.384001 267.162662 
L 210.384001 263.8705 
L 213.359998 263.8705 
L 213.359998 254.790982 
L 216.336004 254.790982 
L 216.336004 257.512309 
L 219.312001 257.512309 
L 219.312001 248.670227 
L 222.287999 248.670227 
L 222.287999 241.702394 
L 225.264 241.702394 
L 225.264 241.089804 
L 228.240002 241.089804 
L 228.240002 237.664288 
L 231.215999 237.664288 
L 231.215999 231.252973 
L 234.192001 231.252973 
L 234.192001 227.108815 
L 237.168002 227.108815 
L 237.168002 224.719625 
L 240.143999 224.719625 
L 240.143999 227.233622 
L 243.120001 227.233622 
L 243.120001 218.548883 
L 246.095998 218.548883 
L 246.095998 217.637365 
L 249.072 217.637365 
L 249.072 212.624952 
L 252.048001 212.624952 
L 252.048001 211.806827 
L 255.023998 211.806827 
L 255.023998 211.442475 
L 258 211.442475 
L 258 208.095776 
L 260.975999 208.095776 
L 260.975999 207.01969 
L 263.952001 207.01969 
L 263.952001 202.169151 
L 266.928 202.169151 
L 266.928 202.380048 
L 269.904 202.380048 
L 269.904 203.022135 
L 272.879999 203.022135 
L 272.879999 198.614713 
L 275.856001 198.614713 
L 275.856001 197.610441 
L 278.832 197.610441 
L 278.832 197.790459 
L 281.807999 197.790459 
L 281.807999 195.869388 
L 284.784 195.869388 
L 284.784 198.475694 
L 287.76 198.475694 
L 287.76 196.209306 
L 290.736 196.209306 
L 290.736 196.423804 
L 296.688 196.466896 
L 296.688 193.673946 
L 299.664 193.673946 
L 299.664 197.033011 
L 302.64 197.033011 
L 302.64 198.383385 
L 305.616 198.383385 
L 305.616 196.081368 
L 308.592001 196.081368 
L 308.592001 199.367661 
L 311.568 199.367661 
L 311.568 200.58489 
L 314.543999 200.58489 
L 314.543999 199.272463 
L 317.520001 199.272463 
L 317.520001 201.442904 
L 320.496 201.442904 
L 320.496 201.803746 
L 323.472 201.803746 
L 323.472 206.649265 
L 326.447999 206.649265 
L 326.447999 205.684073 
L 329.424001 205.684073 
L 329.424001 207.647818 
L 332.4 207.647818 
L 332.4 213.466919 
L 338.351999 213.544693 
L 338.351999 216.580195 
L 341.328 216.580195 
L 341.328 220.265789 
L 344.304002 220.265789 
L 344.304002 222.941048 
L 347.279999 222.941048 
L 347.279999 221.469827 
L 350.256001 221.469827 
L 350.256001 229.040007 
L 353.231998 229.040007 
L 353.231998 231.541903 
L 356.207999 231.541903 
L 356.207999 232.277127 
L 359.184001 232.277127 
L 359.184001 235.923235 
L 362.159998 235.923235 
L 362.159998 243.402458 
L 365.136 243.402458 
L 365.136 245.678653 
L 368.112001 245.678653 
L 368.112001 245.916455 
L 371.087999 245.916455 
L 371.087999 256.119618 
L 374.063996 256.119618 
L 374.063996 262.566847 
L 377.040002 262.566847 
L 377.040002 270.31773 
L 380.015999 270.31773 
L 380.015999 274.495078 
L 382.991996 274.495078 
L 382.991996 277.898153 
L 385.968002 277.898153 
L 385.968002 284.345382 
L 388.943999 284.345382 
L 388.943999 290.344653 
L 391.919996 290.344653 
L 391.919996 293.886971 
L 394.896002 293.886971 
L 394.896002 306.237001 
L 400.847997 306.237001 
L 400.847997 324.399229 
L 403.824003 324.399229 
L 403.824003 310.371577 
L 406.8 310.371577 
L 406.8 332.711154 
L 412.752003 332.711154 
L 412.752003 344.426153 
L 415.728 344.426153 
L 415.728 324.399229 
L 418.703998 324.399229 
L 418.703998 364.453076 
L 421.680004 364.453076 
L 421.680004 332.711154 
L 424.656001 332.711154 
L 424.656001 384.48 
L 430.608004 384.48 
L 430.608004 352.738077 
L 433.584001 352.738077 
L 433.584001 433 
M 436.559998 433 
L 436.559998 384.48 
L 439.536004 384.48 
L 439.536004 433 
M 460.368002 433 
L 460.368002 384.48 
L 463.343999 384.48 
L 463.343999 433 
L 463.343999 433 
" clip-path="url(#p6a7cb47cb2)" style="fill: none; stroke: #ff7f0e; stroke-linejoin: miter"/>
   </g>
   <g id="patch_7">
    <path d="M 141.936004 433 
L 141.936004 384.48 
L 144.912001 384.48 
L 144.912001 433 
M 147.887999 433 
L 147.887999 384.48 
L 150.863996 384.48 
L 150.863996 364.453076 
L 153.840002 364.453076 
L 153.840002 433 
M 156.815999 433 
L 156.815999 384.48 
L 159.791996 384.48 
L 159.791996 364.453076 
L 162.768002 364.453076 
L 162.768002 344.426153 
L 165.743999 344.426153 
L 165.743999 364.453076 
L 168.719996 364.453076 
L 168.719996 328.257318 
L 171.696002 328.257318 
L 171.696002 320.996154 
L 174.672 320.996154 
L 174.672 332.711154 
L 177.647997 332.711154 
L 177.647997 328.257318 
L 180.624003 328.257318 
L 180.624003 317.952 
L 183.6 317.952 
L 183.6 312.68423 
L 186.575997 312.68423 
L 186.575997 300.969231 
L 189.552003 300.969231 
L 189.552003 308.230394 
L 192.528 308.230394 
L 192.528 289.254231 
L 195.503998 289.254231 
L 195.503998 288.20347 
L 198.480004 288.20347 
L 198.480004 276.488471 
L 201.456001 276.488471 
L 201.456001 273.860047 
L 204.431998 273.860047 
L 204.431998 270.31773 
L 207.408004 270.31773 
L 207.408004 261.729318 
L 210.384001 261.729318 
L 210.384001 262.566847 
L 213.359998 262.566847 
L 213.359998 255.117457 
L 216.336004 255.117457 
L 216.336004 247.135739 
L 219.312001 247.135739 
L 219.312001 251.136508 
L 222.287999 251.136508 
L 222.287999 244.976771 
L 225.264 244.976771 
L 225.264 240.68851 
L 228.240002 240.68851 
L 228.240002 235.923235 
L 231.215999 235.923235 
L 231.215999 233.493843 
L 234.192001 233.493843 
L 234.192001 228.1227 
L 237.168002 228.1227 
L 237.168002 227.108815 
L 240.143999 227.108815 
L 240.143999 223.049059 
L 243.120001 223.049059 
L 243.120001 220.364231 
L 246.095998 220.364231 
L 246.095998 215.896311 
L 249.072 215.896311 
L 249.072 215.643971 
L 252.048001 215.643971 
L 252.048001 211.733588 
L 255.023998 211.733588 
L 255.023998 209.347881 
L 258 209.347881 
L 258 208.095776 
L 260.975999 208.095776 
L 260.975999 204.692701 
L 263.952001 204.692701 
L 263.952001 203.956901 
L 266.928 203.956901 
L 266.928 203.403383 
L 269.904 203.403383 
L 269.904 201.803746 
L 272.879999 201.803746 
L 272.879999 197.88089 
L 275.856001 197.88089 
L 275.856001 198.429503 
L 278.832 198.429503 
L 278.832 196.553272 
L 281.807999 196.553272 
L 281.807999 197.790459 
L 284.784 197.790459 
L 284.784 198.337341 
L 287.76 198.337341 
L 287.76 195.785029 
L 290.736 195.785029 
L 290.736 194.995674 
L 293.712 194.995674 
L 293.712 195.201318 
L 296.688 195.201318 
L 296.688 195.617048 
L 299.664 195.617048 
L 299.664 194.954721 
L 302.64 194.954721 
L 302.64 197.386985 
L 305.616 197.386985 
L 305.616 196.857637 
L 308.592001 196.857637 
L 308.592001 199.320023 
L 311.568 199.320023 
L 311.568 198.988735 
L 314.543999 198.988735 
L 314.543999 201.391721 
L 317.520001 201.391721 
L 317.520001 202.699308 
L 320.496 202.699308 
L 320.496 201.700187 
L 323.472 201.700187 
L 323.472 202.380048 
L 326.447999 202.380048 
L 326.447999 207.394926 
L 329.424001 207.394926 
L 329.424001 207.83895 
L 332.4 207.83895 
L 332.4 212.250203 
L 335.376002 212.250203 
L 335.376002 213.857896 
L 338.351999 213.857896 
L 338.351999 215.145808 
L 341.328 215.145808 
L 341.328 219.87534 
L 344.304002 219.87534 
L 344.304002 223.266298 
L 347.279999 223.266298 
L 347.279999 224.719625 
L 350.256001 224.719625 
L 350.256001 227.233622 
L 353.231998 227.233622 
L 353.231998 232.128577 
L 356.207999 232.128577 
L 356.207999 232.87908 
L 359.184001 232.87908 
L 359.184001 239.709001 
L 362.159998 239.709001 
L 362.159998 243.843577 
L 365.136 243.843577 
L 365.136 248.93409 
L 371.087999 248.93409 
L 371.087999 262.566847 
L 374.063996 262.566847 
L 374.063996 261.729318 
L 377.040002 261.729318 
L 377.040002 268.176547 
L 380.015999 268.176547 
L 380.015999 270.31773 
L 382.991996 270.31773 
L 382.991996 273.238674 
L 385.968002 273.238674 
L 385.968002 287.189586 
L 388.943999 287.189586 
L 388.943999 288.20347 
L 391.919996 288.20347 
L 391.919996 291.477847 
L 394.896002 291.477847 
L 394.896002 290.344653 
L 397.872 290.344653 
L 397.872 296.515395 
L 400.847997 296.515395 
L 400.847997 312.68423 
L 406.8 312.68423 
L 406.8 315.198227 
L 409.775997 315.198227 
L 409.775997 352.738077 
L 412.752003 352.738077 
L 412.752003 344.426153 
L 421.680004 344.426153 
L 421.680004 364.453076 
L 424.656001 364.453076 
L 424.656001 433 
M 436.559998 433 
L 436.559998 384.48 
L 439.536004 384.48 
L 439.536004 433 
M 454.416008 433 
L 454.416008 384.48 
L 457.392005 384.48 
L 457.392005 433 
M 460.368002 433 
L 460.368002 384.48 
L 463.343999 384.48 
L 463.343999 433 
L 463.343999 433 
" clip-path="url(#p6a7cb47cb2)" style="fill: none; stroke: #2ca02c; stroke-linejoin: miter"/>
   </g>
   <g id="patch_8">
    <path d="M 180.624003 433 
L 180.624003 364.453076 
L 183.6 364.453076 
L 183.6 433 
M 189.552003 433 
L 189.552003 384.48 
L 198.480004 384.48 
L 198.480004 433 
M 201.456001 433 
L 201.456001 352.738077 
L 207.408004 352.738077 
L 207.408004 364.453076 
L 216.336004 364.453076 
L 216.336004 332.711154 
L 219.312001 332.711154 
L 219.312001 337.978924 
L 222.287999 337.978924 
L 222.287999 332.711154 
L 231.215999 332.711154 
L 231.215999 320.996154 
L 234.192001 320.996154 
L 234.192001 308.230394 
L 237.168002 308.230394 
L 237.168002 317.952 
L 240.143999 317.952 
L 240.143999 299.40708 
L 243.120001 299.40708 
L 243.120001 300.969231 
L 246.095998 300.969231 
L 246.095998 292.657307 
L 249.072 292.657307 
L 249.072 315.198227 
L 252.048001 315.198227 
L 252.048001 288.20347 
L 255.023998 288.20347 
L 255.023998 290.344653 
L 258 290.344653 
L 258 292.657307 
L 260.975999 292.657307 
L 260.975999 289.254231 
L 263.952001 289.254231 
L 263.952001 285.262689 
L 266.928 285.262689 
L 266.928 290.344653 
L 269.904 290.344653 
L 269.904 283.456305 
L 275.856001 283.456305 
L 275.856001 286.210077 
L 278.832 286.210077 
L 278.832 277.898153 
L 281.807999 277.898153 
L 281.807999 279.380157 
L 284.784 279.380157 
L 284.784 286.210077 
L 287.76 286.210077 
L 287.76 285.262689 
L 290.736 285.262689 
L 290.736 281.756241 
L 293.712 281.756241 
L 293.712 285.262689 
L 296.688 285.262689 
L 296.688 278.629654 
L 299.664 278.629654 
L 299.664 271.450924 
L 302.64 271.450924 
L 302.64 280.942307 
L 305.616 280.942307 
L 305.616 277.898153 
L 308.592001 277.898153 
L 308.592001 281.756241 
L 311.568 281.756241 
L 311.568 277.898153 
L 314.543999 277.898153 
L 314.543999 289.254231 
L 317.520001 289.254231 
L 317.520001 286.210077 
L 320.496 286.210077 
L 320.496 283.456305 
L 323.472 283.456305 
L 323.472 287.189586 
L 326.447999 287.189586 
L 326.447999 295.171304 
L 329.424001 295.171304 
L 329.424001 302.620694 
L 332.4 302.620694 
L 332.4 291.477847 
L 335.376002 291.477847 
L 335.376002 299.40708 
L 338.351999 299.40708 
L 338.351999 304.372306 
L 341.328 304.372306 
L 341.328 302.620694 
L 344.304002 302.620694 
L 344.304002 293.886971 
L 347.279999 293.886971 
L 347.279999 315.198227 
L 350.256001 315.198227 
L 350.256001 306.237001 
L 353.231998 306.237001 
L 353.231998 312.68423 
L 356.207999 312.68423 
L 356.207999 315.198227 
L 362.159998 315.198227 
L 362.159998 352.738077 
L 368.112001 352.738077 
L 368.112001 328.257318 
L 371.087999 328.257318 
L 371.087999 352.738077 
L 374.063996 352.738077 
L 374.063996 344.426153 
L 377.040002 344.426153 
L 377.040002 364.453076 
L 385.968002 364.453076 
L 385.968002 352.738077 
L 388.943999 352.738077 
L 388.943999 433 
M 391.919996 433 
L 391.919996 384.48 
L 394.896002 384.48 
L 394.896002 364.453076 
L 397.872 364.453076 
L 397.872 352.738077 
L 403.824003 352.738077 
L 403.824003 433 
M 409.775997 433 
L 409.775997 364.453076 
L 412.752003 364.453076 
L 412.752003 433 
M 415.728 433 
L 415.728 364.453076 
L 418.703998 364.453076 
L 418.703998 433 
L 418.703998 433 
" clip-path="url(#p6a7cb47cb2)" style="fill: none; stroke: #d62728; stroke-linejoin: miter"/>
   </g>
   <g id="LineCollection_1">
    <path d="M 109.2 433 
L 109.2 51.84 
" clip-path="url(#p6a7cb47cb2)" style="fill: none; stroke-dasharray: 5.55,2.4; stroke-dashoffset: 0; stroke: #808080; stroke-width: 1.5"/>
   </g>
   <g id="LineCollection_2">
    <path d="M 481.2 433 
L 481.2 51.84 
" clip-path="url(#p6a7cb47cb2)" style="fill: none; stroke-dasharray: 5.55,2.4; stroke-dashoffset: 0; stroke: #808080; stroke-width: 1.5"/>
   </g>
   <g id="patch_9">
    <path d="M 72 384.48 
L 72 51.84 
" style="fill: none; stroke: #000000; stroke-width: 0.8; stroke-linejoin: miter; stroke-linecap: square"/>
   </g>
   <g id="patch_10">
    <path d="M 518.4 384.48 
L 518.4 51.84 
" style="fill: none; stroke: #000000; stroke-width: 0.8; stroke-linejoin: miter; stroke-linecap: square"/>
   </g>
   <g id="patch_11">
    <path d="M 72 384.48 
L 518.4 384.48 
" style="fill: none; stroke: #000000; stroke-width: 0.8; stroke-linejoin: miter; stroke-linecap: square"/>
   </g>
   <g id="patch_12">
    <path d="M 72 51.84 
L 518.4 51.84 
" style="fill: none; stroke: #000000; stroke-width: 0.8; stroke-linejoin: miter; stroke-linecap: square"/>
   </g>
   <g id="legend_1">
    <g id="patch_13">
     <path d="M 361.978125 133.786875 
L 511.4 133.786875 
Q 513.4 133.786875 513.4 131.786875 
L 513.4 58.84 
Q 513.4 56.84 511.4 56.84 
L 361.978125 56.84 
Q 359.978125 56.84 359.978125 58.84 
L 359.978125 131.786875 
Q 359.978125 133.786875 361.978125 133.786875 
z
" style="fill: #ffffff; opacity: 0.8; stroke: #cccccc; stroke-linejoin: miter"/>
    </g>
    <g id="patch_14">
     <path d="M 363.978125 68.438437 
L 383.978125 68.438437 
L 383.978125 61.438437 
L 363.978125 61.438437 
L 363.978125 68.438437 
z
" style="fill: none; stroke: #1f77b4; stroke-linejoin: miter"/>
    </g>
    <g id="text_16">
     <!-- All -->
     <g transform="translate(391.978125 68.438437) scale(0.1 -0.1)">
      <defs>
       <path id="DejaVuSans-41" d="M 2188 4044 
L 1331 1722 
L 3047 1722 
L 2188 4044 
z
M 1831 4666 
L 2547 4666 
L 4325 0 
L 3669 0 
L 3244 1197 
L 1141 1197 
L 716 0 
L 50 0 
L 1831 4666 
z
" transform="scale(0.015625)"/>
      </defs>
      <use xlink:href="#DejaVuSans-41"/>
      <use xlink:href="#DejaVuSans-6c" transform="translate(68.408203 0)"/>
      <use xlink:href="#DejaVuSans-6c" transform="translate(96.191406 0)"/>
     </g>
    </g>
    <g id="patch_15">
     <path d="M 363.978125 83.116562 
L 383.978125 83.116562 
L 383.978125 76.116562 
L 363.978125 76.116562 
L 363.978125 83.116562 
z
" style="fill: none; stroke: #ff7f0e; stroke-linejoin: miter"/>
    </g>
    <g id="text_17">
     <!-- is_pulser -->
     <g transform="translate(391.978125 83.116562) scale(0.1 -0.1)">
      <use xlink:href="#DejaVuSans-69"/>
      <use xlink:href="#DejaVuSans-73" transform="translate(27.783203 0)"/>
      <use xlink:href="#DejaVuSans-5f" transform="translate(79.882812 0)"/>
      <use xlink:href="#DejaVuSans-70" transform="translate(129.882812 0)"/>
      <use xlink:href="#DejaVuSans-75" transform="translate(193.359375 0)"/>
      <use xlink:href="#DejaVuSans-6c" transform="translate(256.738281 0)"/>
      <use xlink:href="#DejaVuSans-73" transform="translate(284.521484 0)"/>
      <use xlink:href="#DejaVuSans-65" transform="translate(336.621094 0)"/>
      <use xlink:href="#DejaVuSans-72" transform="translate(398.144531 0)"/>
     </g>
    </g>
    <g id="patch_16">
     <path d="M 363.978125 98.072812 
L 383.978125 98.072812 
L 383.978125 91.072812 
L 363.978125 91.072812 
L 363.978125 98.072812 
z
" style="fill: none; stroke: #2ca02c; stroke-linejoin: miter"/>
    </g>
    <g id="text_18">
     <!-- is_forced_trigger -->
     <g transform="translate(391.978125 98.072812) scale(0.1 -0.1)">
      <defs>
       <path id="DejaVuSans-63" d="M 3122 3366 
L 3122 2828 
Q 2878 2963 2633 3030 
Q 2388 3097 2138 3097 
Q 1578 3097 1268 2742 
Q 959 2388 959 1747 
Q 959 1106 1268 751 
Q 1578 397 2138 397 
Q 2388 397 2633 464 
Q 2878 531 3122 666 
L 3122 134 
Q 2881 22 2623 -34 
Q 2366 -91 2075 -91 
Q 1284 -91 818 406 
Q 353 903 353 1747 
Q 353 2603 823 3093 
Q 1294 3584 2113 3584 
Q 2378 3584 2631 3529 
Q 2884 3475 3122 3366 
z
" transform="scale(0.015625)"/>
       <path id="DejaVuSans-64" d="M 2906 2969 
L 2906 4863 
L 3481 4863 
L 3481 0 
L 2906 0 
L 2906 525 
Q 2725 213 2448 61 
Q 2172 -91 1784 -91 
Q 1150 -91 751 415 
Q 353 922 353 1747 
Q 353 2572 751 3078 
Q 1150 3584 1784 3584 
Q 2172 3584 2448 3432 
Q 2725 3281 2906 2969 
z
M 947 1747 
Q 947 1113 1208 752 
Q 1469 391 1925 391 
Q 2381 391 2643 752 
Q 2906 1113 2906 1747 
Q 2906 2381 2643 2742 
Q 2381 3103 1925 3103 
Q 1469 3103 1208 2742 
Q 947 2381 947 1747 
z
" transform="scale(0.015625)"/>
       <path id="DejaVuSans-67" d="M 2906 1791 
Q 2906 2416 2648 2759 
Q 2391 3103 1925 3103 
Q 1463 3103 1205 2759 
Q 947 2416 947 1791 
Q 947 1169 1205 825 
Q 1463 481 1925 481 
Q 2391 481 2648 825 
Q 2906 1169 2906 1791 
z
M 3481 434 
Q 3481 -459 3084 -895 
Q 2688 -1331 1869 -1331 
Q 1566 -1331 1297 -1286 
Q 1028 -1241 775 -1147 
L 775 -588 
Q 1028 -725 1275 -790 
Q 1522 -856 1778 -856 
Q 2344 -856 2625 -561 
Q 2906 -266 2906 331 
L 2906 616 
Q 2728 306 2450 153 
Q 2172 0 1784 0 
Q 1141 0 747 490 
Q 353 981 353 1791 
Q 353 2603 747 3093 
Q 1141 3584 1784 3584 
Q 2172 3584 2450 3431 
Q 2728 3278 2906 2969 
L 2906 3500 
L 3481 3500 
L 3481 434 
z
" transform="scale(0.015625)"/>
      </defs>
      <use xlink:href="#DejaVuSans-69"/>
      <use xlink:href="#DejaVuSans-73" transform="translate(27.783203 0)"/>
      <use xlink:href="#DejaVuSans-5f" transform="translate(79.882812 0)"/>
      <use xlink:href="#DejaVuSans-66" transform="translate(129.882812 0)"/>
      <use xlink:href="#DejaVuSans-6f" transform="translate(165.087891 0)"/>
      <use xlink:href="#DejaVuSans-72" transform="translate(226.269531 0)"/>
      <use xlink:href="#DejaVuSans-63" transform="translate(265.132812 0)"/>
      <use xlink:href="#DejaVuSans-65" transform="translate(320.113281 0)"/>
      <use xlink:href="#DejaVuSans-64" transform="translate(381.636719 0)"/>
      <use xlink:href="#DejaVuSans-5f" transform="translate(445.113281 0)"/>
      <use xlink:href="#DejaVuSans-74" transform="translate(495.113281 0)"/>
      <use xlink:href="#DejaVuSans-72" transform="translate(534.322266 0)"/>
      <use xlink:href="#DejaVuSans-69" transform="translate(575.435547 0)"/>
      <use xlink:href="#DejaVuSans-67" transform="translate(603.21875 0)"/>
      <use xlink:href="#DejaVuSans-67" transform="translate(666.695312 0)"/>
      <use xlink:href="#DejaVuSans-65" transform="translate(730.171875 0)"/>
      <use xlink:href="#DejaVuSans-72" transform="translate(791.695312 0)"/>
     </g>
    </g>
    <g id="patch_17">
     <path d="M 363.978125 113.029062 
L 383.978125 113.029062 
L 383.978125 106.029062 
L 363.978125 106.029062 
L 363.978125 113.029062 
z
" style="fill: none; stroke: #d62728; stroke-linejoin: miter"/>
    </g>
    <g id="text_19">
     <!-- ~PL &amp; ~FT &amp; &lt;500 keV -->
     <g transform="translate(391.978125 113.029062) scale(0.1 -0.1)">
      <defs>
       <path id="DejaVuSans-7e" d="M 4684 2553 
L 4684 1997 
Q 4356 1750 4076 1644 
Q 3797 1538 3494 1538 
Q 3150 1538 2694 1722 
Q 2659 1734 2644 1741 
Q 2622 1750 2575 1766 
Q 2091 1959 1797 1959 
Q 1522 1959 1253 1839 
Q 984 1719 678 1459 
L 678 2016 
Q 1006 2263 1286 2370 
Q 1566 2478 1869 2478 
Q 2213 2478 2672 2291 
Q 2703 2278 2719 2272 
Q 2744 2263 2788 2247 
Q 3272 2053 3566 2053 
Q 3834 2053 4098 2172 
Q 4363 2291 4684 2553 
z
" transform="scale(0.015625)"/>
       <path id="DejaVuSans-50" d="M 1259 4147 
L 1259 2394 
L 2053 2394 
Q 2494 2394 2734 2622 
Q 2975 2850 2975 3272 
Q 2975 3691 2734 3919 
Q 2494 4147 2053 4147 
L 1259 4147 
z
M 628 4666 
L 2053 4666 
Q 2838 4666 3239 4311 
Q 3641 3956 3641 3272 
Q 3641 2581 3239 2228 
Q 2838 1875 2053 1875 
L 1259 1875 
L 1259 0 
L 628 0 
L 628 4666 
z
" transform="scale(0.015625)"/>
       <path id="DejaVuSans-4c" d="M 628 4666 
L 1259 4666 
L 1259 531 
L 3531 531 
L 3531 0 
L 628 0 
L 628 4666 
z
" transform="scale(0.015625)"/>
       <path id="DejaVuSans-26" d="M 1556 2509 
Q 1272 2256 1139 2004 
Q 1006 1753 1006 1478 
Q 1006 1022 1337 719 
Q 1669 416 2169 416 
Q 2466 416 2725 514 
Q 2984 613 3213 813 
L 1556 2509 
z
M 1997 2859 
L 3584 1234 
Q 3769 1513 3872 1830 
Q 3975 2147 3994 2503 
L 4575 2503 
Q 4538 2091 4375 1687 
Q 4213 1284 3922 891 
L 4794 0 
L 4006 0 
L 3559 459 
Q 3234 181 2878 45 
Q 2522 -91 2113 -91 
Q 1359 -91 881 339 
Q 403 769 403 1441 
Q 403 1841 612 2192 
Q 822 2544 1241 2853 
Q 1091 3050 1012 3245 
Q 934 3441 934 3628 
Q 934 4134 1281 4442 
Q 1628 4750 2203 4750 
Q 2463 4750 2720 4694 
Q 2978 4638 3244 4525 
L 3244 3956 
Q 2972 4103 2725 4179 
Q 2478 4256 2266 4256 
Q 1938 4256 1733 4082 
Q 1528 3909 1528 3634 
Q 1528 3475 1620 3314 
Q 1713 3153 1997 2859 
z
" transform="scale(0.015625)"/>
       <path id="DejaVuSans-46" d="M 628 4666 
L 3309 4666 
L 3309 4134 
L 1259 4134 
L 1259 2759 
L 3109 2759 
L 3109 2228 
L 1259 2228 
L 1259 0 
L 628 0 
L 628 4666 
z
" transform="scale(0.015625)"/>
       <path id="DejaVuSans-54" d="M -19 4666 
L 3928 4666 
L 3928 4134 
L 2272 4134 
L 2272 0 
L 1638 0 
L 1638 4134 
L -19 4134 
L -19 4666 
z
" transform="scale(0.015625)"/>
       <path id="DejaVuSans-3c" d="M 4684 3150 
L 1459 2003 
L 4684 863 
L 4684 294 
L 678 1747 
L 678 2266 
L 4684 3719 
L 4684 3150 
z
" transform="scale(0.015625)"/>
       <path id="DejaVuSans-6b" d="M 581 4863 
L 1159 4863 
L 1159 1991 
L 2875 3500 
L 3609 3500 
L 1753 1863 
L 3688 0 
L 2938 0 
L 1159 1709 
L 1159 0 
L 581 0 
L 581 4863 
z
" transform="scale(0.015625)"/>
       <path id="DejaVuSans-56" d="M 1831 0 
L 50 4666 
L 709 4666 
L 2188 738 
L 3669 4666 
L 4325 4666 
L 2547 0 
L 1831 0 
z
" transform="scale(0.015625)"/>
      </defs>
      <use xlink:href="#DejaVuSans-7e"/>
      <use xlink:href="#DejaVuSans-50" transform="translate(83.789062 0)"/>
      <use xlink:href="#DejaVuSans-4c" transform="translate(144.091797 0)"/>
      <use xlink:href="#DejaVuSans-20" transform="translate(199.804688 0)"/>
      <use xlink:href="#DejaVuSans-26" transform="translate(231.591797 0)"/>
      <use xlink:href="#DejaVuSans-20" transform="translate(309.570312 0)"/>
      <use xlink:href="#DejaVuSans-7e" transform="translate(341.357422 0)"/>
      <use xlink:href="#DejaVuSans-46" transform="translate(425.146484 0)"/>
      <use xlink:href="#DejaVuSans-54" transform="translate(480.916016 0)"/>
      <use xlink:href="#DejaVuSans-20" transform="translate(542 0)"/>
      <use xlink:href="#DejaVuSans-26" transform="translate(573.787109 0)"/>
      <use xlink:href="#DejaVuSans-20" transform="translate(651.765625 0)"/>
      <use xlink:href="#DejaVuSans-3c" transform="translate(683.552734 0)"/>
      <use xlink:href="#DejaVuSans-35" transform="translate(767.341797 0)"/>
      <use xlink:href="#DejaVuSans-30" transform="translate(830.964844 0)"/>
      <use xlink:href="#DejaVuSans-30" transform="translate(894.587891 0)"/>
      <use xlink:href="#DejaVuSans-20" transform="translate(958.210938 0)"/>
      <use xlink:href="#DejaVuSans-6b" transform="translate(989.998047 0)"/>
      <use xlink:href="#DejaVuSans-65" transform="translate(1044.283203 0)"/>
      <use xlink:href="#DejaVuSans-56" transform="translate(1105.806641 0)"/>
     </g>
    </g>
    <g id="line2d_54">
     <path d="M 363.978125 124.207187 
L 383.978125 124.207187 
" style="fill: none; stroke-dasharray: 5.55,2.4; stroke-dashoffset: 0; stroke: #808080; stroke-width: 1.5"/>
    </g>
    <g id="text_20">
     <!-- Classifier CUT -->
     <g transform="translate(391.978125 127.707187) scale(0.1 -0.1)">
      <defs>
       <path id="DejaVuSans-55" d="M 556 4666 
L 1191 4666 
L 1191 1831 
Q 1191 1081 1462 751 
Q 1734 422 2344 422 
Q 2950 422 3222 751 
Q 3494 1081 3494 1831 
L 3494 4666 
L 4128 4666 
L 4128 1753 
Q 4128 841 3676 375 
Q 3225 -91 2344 -91 
Q 1459 -91 1007 375 
Q 556 841 556 1753 
L 556 4666 
z
" transform="scale(0.015625)"/>
      </defs>
      <use xlink:href="#DejaVuSans-43"/>
      <use xlink:href="#DejaVuSans-6c" transform="translate(69.824219 0)"/>
      <use xlink:href="#DejaVuSans-61" transform="translate(97.607422 0)"/>
      <use xlink:href="#DejaVuSans-73" transform="translate(158.886719 0)"/>
      <use xlink:href="#DejaVuSans-73" transform="translate(210.986328 0)"/>
      <use xlink:href="#DejaVuSans-69" transform="translate(263.085938 0)"/>
      <use xlink:href="#DejaVuSans-66" transform="translate(290.869141 0)"/>
      <use xlink:href="#DejaVuSans-69" transform="translate(326.074219 0)"/>
      <use xlink:href="#DejaVuSans-65" transform="translate(353.857422 0)"/>
      <use xlink:href="#DejaVuSans-72" transform="translate(415.380859 0)"/>
      <use xlink:href="#DejaVuSans-20" transform="translate(456.494141 0)"/>
      <use xlink:href="#DejaVuSans-43" transform="translate(488.28125 0)"/>
      <use xlink:href="#DejaVuSans-55" transform="translate(558.105469 0)"/>
      <use xlink:href="#DejaVuSans-54" transform="translate(631.298828 0)"/>
     </g>
    </g>
   </g>
  </g>
 </g>
 <defs>
  <clipPath id="p6a7cb47cb2">
   <rect x="72" y="51.84" width="446.4" height="332.64"/>
  </clipPath>
 </defs>
</svg>
